<svg xmlns="http://www.w3.org/2000/svg" viewBox="0 0 152.895 161.0303"><defs><style>.a{fill:#fff;}</style></defs><path class="a" d="M151.0081,45.9525a14.1084,14.1084,0,1,0-25.5838-2.67L92.6836,62.1855a20.6082,20.6082,0,0,0-26.5579-5.16,20.4964,20.4964,0,0,0-5.9236,5.1635L40.79,50.9819,70.791,33.6608a8.6478,8.6478,0,0,0,11.2979,0l25.6793,14.8259,5.7612-3.3262L84.9635,28.668a8.6744,8.6744,0,1,0-17.0472,0L35.029,47.6555l-7.5231-4.3434A14.15,14.15,0,0,0,24.4787,29.357,69.1237,69.1237,0,0,1,125.631,26.342a14.1256,14.1256,0,0,1,3.95-3.4115c.1721-.0994.35-.1772.5248-.2686A74.8628,74.8628,0,0,0,19.774,25.987a14.106,14.106,0,1,0,4.8513,22.3144L57.3334,67.1855A20.5865,20.5865,0,0,0,73.559,95.3109v22.4084l-30.01-17.3262a8.6486,8.6486,0,0,0-5.64-9.7688V60.9605l-5.7614-3.3263,0,32.9887a8.6745,8.6745,0,1,0,8.5217,14.76L73.559,124.3718V133.12a14.1638,14.1638,0,0,0-9.3426,6.7586,13.9931,13.9931,0,0,0-1.1962,2.7824c-1.4922-.2922-2.9811-.6312-4.4641-1.0285A68.6464,68.6464,0,0,1,16.6,109.4389,69.3368,69.3368,0,0,1,9.8337,56.5828a14.013,14.013,0,0,1-4.943-1.7211c-.1633-.0943-.3116-.204-.47-.3038a75.1163,75.1163,0,0,0,7.19,57.7614,74.3661,74.3661,0,0,0,45.4543,34.8782c1.7764.476,3.5607.8736,5.349,1.2121A14.1019,14.1019,0,0,0,76.44,161.03,14.106,14.106,0,0,0,79.32,133.1155l0-37.8012A20.6016,20.6016,0,0,0,95.55,67.1834l19.4211-11.2128,0,34.6305a8.6476,8.6476,0,0,0-5.66,9.8035l-25.6693,14.82v6.6524l28.5636-16.4911a8.676,8.676,0,1,0,8.5269-14.7692V52.6444l7.5451-4.3562a14.1075,14.1075,0,0,0,13.5668,4.3747,69.1157,69.1157,0,0,1-47.9667,89.0979,14.0119,14.0119,0,0,1,.99,5.1631c0,.1819-.0285.3609-.0355.5422a74.8239,74.8239,0,0,0,52.2791-97.204A14.0713,14.0713,0,0,0,151.0081,45.9525ZM21.3341,43.075a8.3469,8.3469,0,1,1-3.0553-11.4021A8.3564,8.3564,0,0,1,21.3341,43.075ZM84.7848,146.9239A8.3466,8.3466,0,1,1,76.44,138.579,8.3372,8.3372,0,0,1,84.7848,146.9239Zm-.9116-59.1584a14.8692,14.8692,0,1,1,5.4416-20.3087A14.8575,14.8575,0,0,1,83.8732,87.7655Zm59.0946-41.6492a8.3443,8.3443,0,0,1-11.4-3.0547,8.3481,8.3481,0,1,1,11.4,3.0547Z"/></svg>